PathFileType	4	(X/Y/Z)	E:\Qualisys_Data\Carbon_Farble_Plate\Data\Amateur_Runner\S1\T1\S1T1V12_c3d.trc
DataRate	CameraRate	NumFrames	NumMarkers	Units	OrigDataRate	OrigDataStartFrame	OrigNumFrames
200.000000	200.000000	4	39	mm	200.000000	273	312
Frame#	Time	LSHO			RSHO			LICST			RICST			LASIS			LHEEL			RASIS			LTROC			RTROC			SACR			LTH1			LSK4			LTH2			LTH3			RHM5			LSK2			LTH4			RTH1			LTOE			RTH2			RTH3			RTH4			LLEP			RLEP			LSK1			LSK3			RSK1			LHM5			RSK2			LFT1			RSK3			RSK4			LLME			RLME			RTOE			RHEEL			RFT1			RFT2			LFT2			
		X1	Y1	Z1	X2	Y2	Z2	X3	Y3	Z3	X4	Y4	Z4	X5	Y5	Z5	X6	Y6	Z6	X7	Y7	Z7	X8	Y8	Z8	X9	Y9	Z9	X10	Y10	Z10	X11	Y11	Z11	X12	Y12	Z12	X13	Y13	Z13	X14	Y14	Z14	X15	Y15	Z15	X16	Y16	Z16	X17	Y17	Z17	X18	Y18	Z18	X19	Y19	Z19	X20	Y20	Z20	X21	Y21	Z21	X22	Y22	Z22	X23	Y23	Z23	X24	Y24	Z24	X25	Y25	Z25	X26	Y26	Z26	X27	Y27	Z27	X28	Y28	Z28	X29	Y29	Z29	X30	Y30	Z30	X31	Y31	Z31	X32	Y32	Z32	X33	Y33	Z33	X34	Y34	Z34	X35	Y35	Z35	X36	Y36	Z36	X37	Y37	Z37	X38	Y38	Z38	X39	Y39	Z39	

274	1.365	2019.921264648438	1519.633544921875	-531.9976196289062	1940.859985351562	1529.08203125	-218.2988739013672	1934.777587890625	1049.875366210938	-497.0237731933594	1939.414306640625	1085.970825195312	-200.4093933105469	1978.654418945312	1009.271118164062	-473.4210205078125	1482.679321289062	194.8378601074219	-377.828857421875	1976.267578125	1036.978515625	-209.5632781982422	1851.313842773438	940.4917602539062	-504.0984191894531	1883.9267578125	948.0892944335938	-165.262451171875	1820.556274414062	1088.164916992188	-342.7437133789062	1937.80810546875	767.911376953125	-479.4883728027344	1582.239624023438	325.7104797363281	-413.9248657226562	1859.3251953125	783.2783813476562	-509.0470886230469	1908.847045898438	669.6749877929688	-459.23681640625	2102.036376953125	134.7430114746094	-187.1118011474609	1639.257080078125	402.1410827636719	-455.601318359375	1828.540771484375	690.1409912109375	-481.6680297851562	2054.93701171875	884.0980224609375	-198.8555297851562	1682.176513671875	52.02345275878906	-376.5781555175781	1995.005615234375	841.697509765625	-164.5654907226562	2112.73681640625	798.9685668945312	-200.9697113037109	2046.6630859375	756.4237060546875	-177.5926666259766	1812.632446289062	535.0572509765625	-443.8769226074219	2142.83544921875	619.3709716796875	-215.6090545654297	1706.2529296875	350.60986328125	-446.136962890625	1639.546630859375	274.2078857421875	-439.2485656738281	2090.7705078125	434.5780029296875	-196.4756317138672	1618.317749023438	62.26831436157227	-438.4035339355469	2014.451416015625	460.17529296875	-212.7707672119141	1480.341918945312	170.5987548828125	-346.4520263671875	2062.808349609375	339.1298217773438	-209.1176910400391	1988.317260742188	364.2255554199219	-232.3689727783203	1544.212890625	193.4940643310547	-428.1038818359375	1991.556274414062	223.0094757080078	-210.2219848632812	2175.451171875	145.8099975585938	-260.31689453125	1923.20458984375	192.1296691894531	-257.4350891113281	1932.843017578125	162.8124694824219	-288.0655212402344	1924.323486328125	167.2113647460938	-230.5438232421875	1469.665649414062	167.0261688232422	-399.2764282226562
275	1.37	2036.113525390625	1524.032836914062	-530.8607177734375	1956.241088867188	1532.911743164062	-218.0630645751953	1952.54052734375	1053.276000976562	-497.1809692382812	1956.914794921875	1089.600708007812	-200.2653656005859	1996.239990234375	1012.618408203125	-473.1018981933594	1492.516967773438	204.0831604003906	-378.7953796386719	1993.38330078125	1040.878784179688	-209.7355499267578	1868.39599609375	944.367919921875	-504.1961364746094	1901.0703125	951.7600708007812	-165.3646087646484	1837.93505859375	1091.759155273438	-343.2742309570312	1951.952392578125	770.8480224609375	-480.5783996582031	1591.83740234375	331.71533203125	-414.6716613769531	1873.653076171875	787.5911254882812	-509.3210754394531	1921.516357421875	673.0369262695312	-460.1344909667969	2137.91943359375	134.3007354736328	-188.3662872314453	1648.73583984375	408.091552734375	-456.3101196289062	1841.501586914062	694.895263671875	-482.4618530273438	2071.82421875	887.0791015625	-199.7155303955078	1683.769165039062	51.01702117919922	-376.4343872070312	2011.588745117188	844.7899169921875	-165.8115844726562	2128.72998046875	801.595703125	-202.1784210205078	2062.6015625	759.3442993164062	-179.5489196777344	1823.001098632812	539.5360717773438	-444.3035888671875	2157.634521484375	620.8132934570312	-216.4117431640625	1715.54248046875	356.1304321289062	-447.7715454101562	1648.904907226562	280.0362243652344	-441.4067687988281	2112.96435546875	434.0093078613281	-196.4198455810547	1621.350952148438	63.56943893432617	-439.3868103027344	2035.219116210938	455.4640197753906	-212.7203979492188	1489.6884765625	180.3655090332031	-347.0908508300781	2088.90673828125	336.3681640625	-209.7827758789062	2014.029541015625	358.6946105957031	-232.9108734130859	1553.907104492188	199.5297393798828	-429.4331665039062	2024.2236328125	216.2987670898438	-211.8302001953125	2211.052978515625	148.4826812744141	-261.9269714355469	1955.009521484375	182.1148376464844	-258.3065795898438	1967.628051757812	154.324951171875	-288.7789306640625	1959.0517578125	158.2750701904297	-231.5820007324219	1478.5224609375	176.8448791503906	-399.673095703125
276	1.375	2052.588134765625	1528.52783203125	-529.3296508789062	1971.499755859375	1536.413330078125	-217.7916717529297	1970.046875	1056.191650390625	-496.8574829101562	1973.682495117188	1093.025634765625	-201.1359558105469	2013.5517578125	1015.626831054688	-472.9647827148438	1503.184814453125	213.6384887695312	-379.3099365234375	2010.141479492188	1044.225219726562	-209.8649597167969	1885.513916015625	948.0679931640624	-504.5254516601562	1917.848266601562	955.1906127929688	-165.5818481445312	1855.508911132812	1095.120849609375	-343.6589660644531	1966.186767578125	773.694091796875	-481.6746826171875	1601.589111328125	337.2683715820312	-415.1903381347656	1887.840209960938	791.771240234375	-510.102783203125	1934.424560546875	676.3580932617188	-461.6139221191406	2173.706787109375	134.2898864746094	-189.1430206298828	1658.4853515625	413.8811645507812	-457.0700378417969	1854.464599609375	699.4955444335938	-483.1410217285156	2088.586181640625	889.3642578125	-200.1025848388672	1686.962646484375	50.32580947875977	-377.060302734375	2028.004272460938	847.0921630859375	-167.6611633300781	2144.69287109375	803.552978515625	-203.18115234375	2078.01025390625	761.5471801757812	-181.4329223632812	1833.914794921875	544.2383422851562	-445.0953979492188	2171.416748046875	622.4144897460938	-217.4502105712891	1725.303588867188	361.7829284667969	-449.023681640625	1658.321166992188	285.137939453125	-442.6912231445312	2134.625	432.2933654785156	-196.9797210693359	1625.426391601562	66.36393737792969	-439.80126953125	2056.420166015625	450.8354187011719	-213.1508636474609	1499.067504882812	190.1007843017578	-347.8585510253906	2115.100830078125	334.3709106445312	-210.5677642822266	2039.14794921875	353.2003479003906	-233.5048370361328	1562.977416992188	204.7948760986328	-429.84912109375	2056.27099609375	210.8421020507812	-212.8023529052734	2245.96923828125	151.7849731445312	-263.0273132324219	1988.748291015625	173.3257141113281	-259.8222045898438	2002.098876953125	146.2208709716797	-289.4634094238281	1993.47607421875	149.9317779541016	-231.9824371337891	1488.2080078125	186.9146575927734	-400.2923583984375
277	1.38	2068.777587890625	1532.707885742188	-528.1431274414062	1987.110473632812	1539.6943359375	-217.1687774658203	1987.871704101562	1059.28857421875	-497.033203125	1990.716674804688	1095.723510742188	-201.1314086914062	2031.057250976562	1018.880493164062	-471.8152770996094	1514.478759765625	223.3011016845703	-380.0787048339844	2027.167602539062	1047.1552734375	-210.0876312255859	1902.104248046875	951.7158203125	-505.1673583984375	1934.942260742188	958.0477905273438	-166.0049591064453	1872.728637695312	1098.38525390625	-344.2701110839844	1980.650756835938	776.6815795898438	-483.4645690917969	1611.68212890625	343.1184387207031	-415.8935852050781	1902.02783203125	795.75634765625	-510.6597595214844	1947.35546875	679.8565063476562	-462.9847717285156	2209.129638671875	134.9151153564453	-191.1159362792969	1668.90185546875	419.4862060546875	-457.3059387207031	1867.628662109375	703.95947265625	-483.9919738769531	2105.4189453125	891.1997680664062	-200.4130096435547	1690.5634765625	49.54928588867188	-377.7746276855469	2043.966186523438	849.2584228515625	-168.5693664550781	2160.51025390625	805.0144653320312	-204.3293151855469	2093.491943359375	763.3599853515625	-183.0735015869141	1845.358276367188	548.9075317382812	-446.5334777832031	2185.60546875	623.0286865234375	-218.4266967773438	1735.341918945312	367.1126708984375	-450.6417541503906	1668.24169921875	290.7493896484375	-444.9829711914062	2156.3603515625	431.3826599121094	-197.3289794921875	1629.801513671875	69.67098999023438	-439.8271179199219	2077.110595703125	446.1814880371094	-213.1752777099609	1509.50439453125	200.5934600830078	-348.5094604492188	2140.924560546875	332.2509155273438	-211.1621398925781	2064.1923828125	348.0847473144531	-233.71484375	1573.408813476562	210.9500732421875	-431.1083984375	2088.099853515625	205.8166656494141	-213.7645568847656	2280.00732421875	155.5256500244141	-264.5568542480469	2022.176879882812	165.4696655273438	-260.6734008789062	2036.760131835938	138.5007171630859	-290.1925354003906	2028.0859375	141.8183441162109	-233.1154327392578	1497.929809570312	197.5223846435547	-401.2057800292969
